<?xml version="1.0" standalone="no"?>
<!DOCTYPE svg PUBLIC "-//W3C//DTD SVG 20010904//EN"
 "http://www.w3.org/TR/2001/REC-SVG-20010904/DTD/svg10.dtd">
<svg version="1.0" xmlns="http://www.w3.org/2000/svg"
 width="300.000000pt" height="293.000000pt" viewBox="0 0 300.000000 293.000000"
 preserveAspectRatio="xMidYMid meet">
<metadata>
Created by potrace 1.10, written by Peter Selinger 2001-2011
</metadata>
<g transform="translate(0.000000,293.000000) scale(0.050000,-0.050000)"
fill="#5f58c4" stroke="none">
<path d="M2429 5342 c-4 -4 -42 -11 -83 -14 -42 -4 -98 -11 -126 -16 -27 -5
-78 -14 -111 -19 -161 -26 -540 -193 -705 -310 -33 -24 -66 -43 -74 -43 -7 0
-25 -11 -40 -25 -14 -14 -53 -45 -85 -70 -784 -599 -1112 -1930 -673 -2730 17
-30 34 -75 39 -99 4 -23 15 -48 24 -55 8 -6 33 -47 55 -91 100 -198 382 -511
641 -711 154 -119 150 -92 -12 82 -76 82 -144 165 -150 184 -7 19 -20 35 -30
35 -11 0 -19 14 -19 30 0 17 -7 30 -16 30 -26 0 -215 393 -273 566 -140 416
-137 962 8 1391 52 156 225 511 263 543 7 6 37 49 67 98 131 208 506 538 775
679 697 366 1460 367 2150 4 209 -110 206 -109 206 -83 0 23 -285 242 -315
242 -12 0 -25 7 -28 16 -4 9 -106 67 -227 128 -366 186 -573 234 -1037 242
-119 2 -220 1 -224 -4z m-280 -264 c31 -32 -62 -48 -96 -17 -35 34 -34 35 25
31 33 -2 65 -9 71 -14z m-234 -89 c25 -7 45 -22 45 -33 0 -10 -8 -13 -18 -7
-10 6 -41 3 -68 -7 -32 -13 -56 -12 -70 2 -16 16 -19 10 -11 -18 8 -34 1 -38
-47 -32 -80 10 -142 -41 -104 -87 26 -31 21 -33 -62 -20 -80 11 -86 10 -54
-15 38 -30 35 -34 -56 -84 -22 -12 -38 -31 -35 -43 2 -13 -15 -29 -39 -36 -24
-8 -57 -27 -72 -42 -15 -15 -35 -22 -46 -16 -10 6 -18 -11 -18 -39 0 -29 -16
-59 -38 -71 -64 -34 -105 -84 -93 -115 6 -15 3 -23 -7 -17 -10 6 -29 -3 -42
-19 -13 -16 -32 -25 -42 -19 -10 6 -13 -1 -8 -15 10 -30 -44 -109 -62 -90 -33
32 -92 -31 -83 -88 4 -32 0 -58 -10 -58 -9 0 -12 -9 -5 -20 7 -11 -15 -48 -49
-82 -34 -34 -59 -77 -56 -95 3 -23 -9 -33 -40 -31 -34 1 -39 -5 -23 -25 12
-14 14 -37 6 -51 -11 -19 -6 -18 19 2 30 24 32 24 21 -5 -7 -18 -30 -33 -52
-33 -28 0 -37 9 -29 30 7 17 3 30 -8 30 -25 0 -24 -47 2 -73 14 -14 14 -38 -1
-77 -19 -49 -18 -53 9 -31 34 28 38 22 19 -27 -7 -18 -20 -27 -30 -21 -10 7
-24 -15 -30 -48 -8 -39 -22 -56 -39 -50 -22 8 -26 -14 -20 -106 4 -64 3 -137
-3 -162 -18 -79 -47 -26 -44 81 1 57 0 113 -4 124 -4 11 10 46 31 77 32 48 33
59 9 74 -18 12 -20 18 -4 19 41 0 75 82 43 102 -15 10 -19 18 -10 18 10 0 7
14 -7 30 -20 24 -20 30 0 30 13 0 19 13 13 30 -8 20 0 30 24 30 23 0 36 16 36
45 3 96 8 117 27 105 11 -7 20 -4 20 7 0 11 -11 24 -25 30 -15 6 -11 10 10 11
19 1 34 9 33 17 -8 45 5 68 32 58 32 -13 42 17 12 36 -28 17 24 111 58 106 18
-3 30 13 32 43 2 27 18 60 37 74 19 14 29 35 22 47 -12 19 -1 24 42 20 6 -1
23 19 36 45 13 25 36 43 51 40 22 -5 22 -1 1 25 -23 27 -22 30 10 18 28 -11
33 -7 23 19 -7 19 -6 33 2 31 43 -6 84 6 84 25 0 39 78 133 120 144 22 6 36 3
30 -6 -6 -9 8 -12 30 -6 22 6 35 19 29 28 -7 10 3 24 20 30 17 7 31 25 31 40
0 15 10 28 21 28 12 0 16 -9 9 -20 -7 -11 -3 -20 9 -20 12 0 30 21 39 46 24
61 74 103 91 75 8 -12 23 -21 36 -21 12 0 16 6 9 12 -7 7 2 26 18 43 25 25 26
34 4 47 -14 10 7 12 49 5 47 -8 75 -4 75 9 0 22 53 19 135 -7z"/>
<path d="M2660 4848 c-2073 -706 -2024 -3589 70 -4198 402 -116 1027 -90 1350
58 l70 32 -120 -15 c-1225 -152 -2271 612 -2481 1812 -159 914 395 1961 1210
2284 218 87 140 108 -99 27z"/>
<path d="M2559 4031 c-10 -10 -19 -41 -19 -68 0 -68 -142 -882 -173 -988 -13
-45 708 -55 722 -10 4 14 14 60 21 103 l13 78 -254 -15 -255 -14 13 46 c7 26
19 94 26 152 l13 105 214 0 215 0 13 63 c24 120 30 117 -200 117 -180 0 -211
5 -201 30 6 16 18 75 25 130 l13 100 246 0 c269 0 262 -3 272 106 l7 76 -346
4 c-198 2 -354 -4 -365 -15z"/>
<path d="M3439 4045 l-91 -7 -86 -494 c-47 -272 -90 -519 -96 -550 l-11 -56
117 6 c115 6 118 8 124 66 3 33 42 267 87 520 44 253 82 473 84 488 4 33 -11
36 -128 27z"/>
<path d="M3680 3895 c-13 -80 -54 -313 -92 -518 -37 -206 -68 -389 -68 -407 0
-51 536 -36 646 18 195 96 265 411 109 495 -37 20 -36 23 22 58 115 70 157
235 92 362 -54 103 -161 136 -442 137 l-243 0 -24 -145z m460 -61 c57 -28 73
-92 40 -155 -52 -97 -358 -147 -332 -54 7 25 19 88 25 140 l13 95 102 0 c56 0
125 -12 152 -26z m-39 -435 c48 -25 52 -131 8 -194 -62 -89 -365 -124 -340
-40 7 25 18 81 24 125 6 44 14 91 18 105 10 31 234 34 290 4z"/>
<path d="M2520 2666 c-198 -102 -176 -406 30 -406 79 0 170 49 170 92 0 36
-39 35 -89 -3 -124 -93 -221 59 -131 206 43 72 170 95 192 36 13 -33 68 -18
68 19 0 73 -141 106 -240 56z"/>
<path d="M2811 2495 c-20 -102 -41 -196 -46 -210 -7 -19 29 -25 141 -25 115 0
152 7 161 30 10 25 -9 30 -105 30 l-117 0 14 65 c12 60 19 65 92 65 58 0 80 9
85 35 6 29 -8 35 -72 35 -73 0 -78 4 -69 50 9 47 18 50 127 50 92 0 118 7 118
30 0 24 -30 30 -146 30 l-145 0 -38 -185z"/>
<path d="M3190 2635 c-90 -391 -87 -375 -48 -375 29 0 43 31 71 160 39 184 50
183 103 -10 34 -125 44 -141 91 -146 29 -4 53 1 53 10 0 9 18 101 40 204 22
103 40 191 40 195 0 4 -17 7 -39 7 -32 0 -42 -24 -64 -150 -13 -82 -30 -150
-37 -150 -7 0 -32 68 -56 150 -48 162 -128 217 -154 105z"/>
<path d="M3580 2650 c0 -20 20 -30 60 -30 70 0 70 -1 22 -206 l-37 -156 41 6
c35 5 47 29 68 136 44 224 41 217 110 224 148 14 80 56 -92 56 -140 0 -172 -6
-172 -30z"/>
<path d="M3922 2495 c-58 -252 -66 -235 108 -235 120 0 150 6 150 30 0 23 -26
30 -110 30 -115 0 -121 6 -97 96 11 40 23 45 94 40 65 -5 83 1 89 29 6 29 -8
35 -75 35 -80 0 -99 21 -65 74 8 13 63 26 123 30 176 10 155 56 -25 56 l-149
0 -43 -185z"/>
<path d="M4274 2515 c-19 -91 -40 -185 -47 -210 -9 -36 -3 -45 29 -45 34 0 44
17 55 90 9 57 24 90 42 90 15 0 47 -40 71 -90 34 -69 55 -90 91 -90 l47 0 -52
88 c-51 87 -51 89 -11 102 187 59 125 230 -84 230 l-107 0 -34 -165z m243 57
c9 -47 -29 -71 -114 -72 -53 0 -65 7 -55 32 7 17 12 45 12 61 0 47 148 28 157
-21z"/>
<path d="M1940 2310 c0 -18 148 -282 190 -340 571 -786 1542 -1141 2420 -887
149 44 575 233 587 260 3 10 19 17 35 17 15 0 28 7 28 15 0 9 29 32 65 51 78
42 415 360 415 392 0 35 -12 28 -155 -87 -124 -100 -491 -311 -541 -311 -12 0
-47 -10 -78 -23 -31 -13 -65 -25 -76 -28 -11 -3 -94 -24 -185 -47 -400 -104
-844 -100 -1245 10 -104 28 -199 54 -210 57 -116 30 -372 157 -527 261 -82 55
-173 116 -201 135 -83 55 -307 286 -403 414 -79 106 -119 143 -119 111z"/>
</g>
</svg>
